name ./resultDataOpenSim/trcMotMarkerGrf/sub10/grf-14-03.mot
datacolumns 19
datarows 25
range 0.48400000 0.58000000
endheader

                time	     ground_force_vx	     ground_force_vy	     ground_force_vz	     ground_force_px	     ground_force_py	     ground_force_pz	   l_ground_force_vx	   l_ground_force_vy	   l_ground_force_vz	   l_ground_force_px	   l_ground_force_py	   l_ground_force_pz	     ground_torque_x	     ground_torque_y	     ground_torque_z	   l_ground_torque_x	   l_ground_torque_y	   l_ground_torque_z	
          0.48400000	         58.74578495	        508.08317033	        -30.87406474	         -0.81800138	          0.00000000	         -0.01412509	          0.00000000	          0.00000000	          0.00000000	          0.00000000	          0.00000000	          0.00000000	          0.00000000	          5.55055634	          0.00000000	          0.00000000	          0.00000000	          0.00000000	
          0.48800000	         59.43843774	        517.07355342	        -32.99214077	         -0.81553646	          0.00000000	         -0.01431016	          0.00000000	          0.00000000	          0.00000000	          0.00000000	          0.00000000	          0.00000000	          0.00000000	          5.40275346	          0.00000000	          0.00000000	          0.00000000	          0.00000000	
          0.49200000	         59.77576022	        526.54425177	        -34.02957331	         -0.81299098	          0.00000000	         -0.01462819	          0.00000000	          0.00000000	          0.00000000	          0.00000000	          0.00000000	          0.00000000	          0.00000000	          5.30761541	          0.00000000	          0.00000000	          0.00000000	          0.00000000	
          0.49600000	         59.94551555	        536.50269964	        -34.03108579	         -0.81042009	          0.00000000	         -0.01505665	          0.00000000	          0.00000000	          0.00000000	          0.00000000	          0.00000000	          0.00000000	          0.00000000	          5.26380603	          0.00000000	          0.00000000	          0.00000000	          0.00000000	
          0.50000000	         60.18852904	        546.96630613	        -33.21158087	         -0.80787622	          0.00000000	         -0.01557238	          0.00000000	          0.00000000	          0.00000000	          0.00000000	          0.00000000	          0.00000000	          0.00000000	          5.25824082	          0.00000000	          0.00000000	          0.00000000	          0.00000000	
          0.50400000	         60.74517824	        557.96382548	        -31.91667325	         -0.80539742	          0.00000000	         -0.01615204	          0.00000000	          0.00000000	          0.00000000	          0.00000000	          0.00000000	          0.00000000	          0.00000000	          5.26727144	          0.00000000	          0.00000000	          0.00000000	          0.00000000	
          0.50800000	         61.80252088	        569.54108126	        -30.55639167	         -0.80301227	          0.00000000	         -0.01675956	          0.00000000	          0.00000000	          0.00000000	          0.00000000	          0.00000000	          0.00000000	          0.00000000	          5.26023962	          0.00000000	          0.00000000	          0.00000000	          0.00000000	
          0.51200000	         63.45478822	        581.75258602	        -29.52446144	         -0.80075293	          0.00000000	         -0.01736380	          0.00000000	          0.00000000	          0.00000000	          0.00000000	          0.00000000	          0.00000000	          0.00000000	          5.20520372	          0.00000000	          0.00000000	          0.00000000	          0.00000000	
          0.51600000	         65.68465074	        594.63635411	        -29.11331296	         -0.79863964	          0.00000000	         -0.01794347	          0.00000000	          0.00000000	          0.00000000	          0.00000000	          0.00000000	          0.00000000	          0.00000000	          5.07587264	          0.00000000	          0.00000000	          0.00000000	          0.00000000	
          0.52000000	         68.36871182	        608.21488963	        -29.44332362	         -0.79666913	          0.00000000	         -0.01848984	          0.00000000	          0.00000000	          0.00000000	          0.00000000	          0.00000000	          0.00000000	          0.00000000	          4.85814694	          0.00000000	          0.00000000	          0.00000000	          0.00000000	
          0.52400000	         71.31879716	        622.49612259	        -30.43112817	         -0.79484979	          0.00000000	         -0.01901073	          0.00000000	          0.00000000	          0.00000000	          0.00000000	          0.00000000	          0.00000000	          0.00000000	          4.55448054	          0.00000000	          0.00000000	          0.00000000	          0.00000000	
          0.52800000	         74.36443719	        637.39313657	        -31.79866354	         -0.79321280	          0.00000000	         -0.01952973	          0.00000000	          0.00000000	          0.00000000	          0.00000000	          0.00000000	          0.00000000	          0.00000000	          4.18470528	          0.00000000	          0.00000000	          0.00000000	          0.00000000	
          0.53200000	         77.42315947	        652.64170766	        -33.12381582	         -0.79174725	          0.00000000	         -0.02008341	          0.00000000	          0.00000000	          0.00000000	          0.00000000	          0.00000000	          0.00000000	          0.00000000	          3.78296267	          0.00000000	          0.00000000	          0.00000000	          0.00000000	
          0.53600000	         80.51843103	        667.90372870	        -33.93965671	         -0.79038904	          0.00000000	         -0.02070044	          0.00000000	          0.00000000	          0.00000000	          0.00000000	          0.00000000	          0.00000000	          0.00000000	          3.39153007	          0.00000000	          0.00000000	          0.00000000	          0.00000000	
          0.54000000	         83.78799257	        683.01458868	        -33.84259849	         -0.78909509	          0.00000000	         -0.02139087	          0.00000000	          0.00000000	          0.00000000	          0.00000000	          0.00000000	          0.00000000	          0.00000000	          3.05301830	          0.00000000	          0.00000000	          0.00000000	          0.00000000	
          0.54400000	         87.48012050	        698.10393069	        -32.56657595	         -0.78790994	          0.00000000	         -0.02215232	          0.00000000	          0.00000000	          0.00000000	          0.00000000	          0.00000000	          0.00000000	          0.00000000	          2.80250019	          0.00000000	          0.00000000	          0.00000000	          0.00000000	
          0.54800000	         91.87210045	        713.44802344	        -30.02672370	         -0.78692677	          0.00000000	         -0.02297439	          0.00000000	          0.00000000	          0.00000000	          0.00000000	          0.00000000	          0.00000000	          0.00000000	          2.66100370	          0.00000000	          0.00000000	          0.00000000	          0.00000000	
          0.55200000	         97.14039004	        729.19373775	        -26.33025438	         -0.78617671	          0.00000000	         -0.02383977	          0.00000000	          0.00000000	          0.00000000	          0.00000000	          0.00000000	          0.00000000	          0.00000000	          2.63169059	          0.00000000	          0.00000000	          0.00000000	          0.00000000	
          0.55600000	        103.29974542	        745.21580159	        -21.74790490	         -0.78559391	          0.00000000	         -0.02473360	          0.00000000	          0.00000000	          0.00000000	          0.00000000	          0.00000000	          0.00000000	          0.00000000	          2.69961338	          0.00000000	          0.00000000	          0.00000000	          0.00000000	
          0.56000000	        110.24709323	        761.23577116	        -16.66627966	         -0.78508153	          0.00000000	         -0.02564491	          0.00000000	          0.00000000	          0.00000000	          0.00000000	          0.00000000	          0.00000000	          0.00000000	          2.83503060	          0.00000000	          0.00000000	          0.00000000	          0.00000000	
          0.56400000	        117.82944939	        777.05121165	        -11.52670556	         -0.78459566	          0.00000000	         -0.02655379	          0.00000000	          0.00000000	          0.00000000	          0.00000000	          0.00000000	          0.00000000	          0.00000000	          2.99934466	          0.00000000	          0.00000000	          0.00000000	          0.00000000	
          0.56800000	        125.87805271	        792.59557148	         -6.74172703	         -0.78416756	          0.00000000	         -0.02742863	          0.00000000	          0.00000000	          0.00000000	          0.00000000	          0.00000000	          0.00000000	          0.00000000	          3.15228590	          0.00000000	          0.00000000	          0.00000000	          0.00000000	
          0.57200000	        134.22764916	        807.75961010	         -2.61662413	         -0.78383821	          0.00000000	         -0.02823966	          0.00000000	          0.00000000	          0.00000000	          0.00000000	          0.00000000	          0.00000000	          0.00000000	          3.25895931	          0.00000000	          0.00000000	          0.00000000	          0.00000000	
          0.57600000	        142.74239399	        822.20507003	          0.69612348	         -0.78359211	          0.00000000	         -0.02897293	          0.00000000	          0.00000000	          0.00000000	          0.00000000	          0.00000000	          0.00000000	          0.00000000	          3.29554259	          0.00000000	          0.00000000	          0.00000000	          0.00000000	
          0.58000000	        151.34361555	        835.40615616	          3.21080000	         -0.78336401	          0.00000000	         -0.02963489	          0.00000000	          0.00000000	          0.00000000	          0.00000000	          0.00000000	          0.00000000	          0.00000000	          3.25267826	          0.00000000	          0.00000000	          0.00000000	          0.00000000	
